<mxfile host="app.diagrams.net" modified="2023-05-15T12:34:33.915Z" agent="Mozilla/5.0 (Windows NT 10.0; Win64; x64) AppleWebKit/537.36 (KHTML, like Gecko) Chrome/113.0.0.0 Safari/537.36" etag="SdrgkB3TyCdzpb3Aywx8" version="21.2.9" type="device">
  <diagram name="Page-1" id="jL2OIRCgTrRZPMlS60XD">
    <mxGraphModel dx="1434" dy="764" grid="1" gridSize="10" guides="1" tooltips="1" connect="1" arrows="1" fold="1" page="1" pageScale="1" pageWidth="850" pageHeight="1100" math="0" shadow="0">
      <root>
        <mxCell id="0" />
        <mxCell id="1" parent="0" />
        <mxCell id="KEc5gwt8fzmTfbdWs-q2-9" style="edgeStyle=orthogonalEdgeStyle;rounded=0;orthogonalLoop=1;jettySize=auto;html=1;exitX=1;exitY=0.5;exitDx=0;exitDy=0;entryX=0;entryY=0.5;entryDx=0;entryDy=0;endArrow=open;endFill=0;" parent="1" source="KEc5gwt8fzmTfbdWs-q2-4" target="uVsLiHf1kBDPZ6NU2Ox3-1" edge="1">
          <mxGeometry relative="1" as="geometry" />
        </mxCell>
        <mxCell id="KEc5gwt8fzmTfbdWs-q2-4" value="" style="ellipse;fillColor=strokeColor;html=1;" parent="1" vertex="1">
          <mxGeometry x="80" y="120" width="30" height="30" as="geometry" />
        </mxCell>
        <mxCell id="KEc5gwt8fzmTfbdWs-q2-10" style="edgeStyle=orthogonalEdgeStyle;rounded=0;orthogonalLoop=1;jettySize=auto;html=1;exitX=1;exitY=0.5;exitDx=0;exitDy=0;entryX=0;entryY=0.5;entryDx=0;entryDy=0;endArrow=open;endFill=0;" parent="1" source="KEc5gwt8fzmTfbdWs-q2-6" target="KEc5gwt8fzmTfbdWs-q2-7" edge="1">
          <mxGeometry relative="1" as="geometry" />
        </mxCell>
        <mxCell id="KEc5gwt8fzmTfbdWs-q2-6" value="Waiting tax value" style="rounded=1;whiteSpace=wrap;html=1;fillColor=#fff2cc;strokeColor=#d6b656;" parent="1" vertex="1">
          <mxGeometry x="340" y="105" width="120" height="60" as="geometry" />
        </mxCell>
        <mxCell id="KEc5gwt8fzmTfbdWs-q2-11" style="edgeStyle=orthogonalEdgeStyle;rounded=0;orthogonalLoop=1;jettySize=auto;html=1;exitX=1;exitY=0.5;exitDx=0;exitDy=0;entryX=0;entryY=0.5;entryDx=0;entryDy=0;endArrow=open;endFill=0;" parent="1" source="KEc5gwt8fzmTfbdWs-q2-7" target="KEc5gwt8fzmTfbdWs-q2-8" edge="1">
          <mxGeometry relative="1" as="geometry" />
        </mxCell>
        <mxCell id="KEc5gwt8fzmTfbdWs-q2-7" value="Calculating new house price" style="rounded=1;whiteSpace=wrap;html=1;fillColor=#fff2cc;strokeColor=#d6b656;" parent="1" vertex="1">
          <mxGeometry x="510" y="105" width="120" height="60" as="geometry" />
        </mxCell>
        <mxCell id="uVsLiHf1kBDPZ6NU2Ox3-3" style="edgeStyle=orthogonalEdgeStyle;rounded=0;orthogonalLoop=1;jettySize=auto;html=1;exitX=0.5;exitY=1;exitDx=0;exitDy=0;entryX=0.5;entryY=1;entryDx=0;entryDy=0;endArrow=open;endFill=0;" edge="1" parent="1" source="KEc5gwt8fzmTfbdWs-q2-8" target="uVsLiHf1kBDPZ6NU2Ox3-1">
          <mxGeometry relative="1" as="geometry" />
        </mxCell>
        <mxCell id="KEc5gwt8fzmTfbdWs-q2-8" value="Saving purchase data" style="rounded=1;whiteSpace=wrap;html=1;fillColor=#fff2cc;strokeColor=#d6b656;" parent="1" vertex="1">
          <mxGeometry x="680" y="105" width="120" height="60" as="geometry" />
        </mxCell>
        <mxCell id="uVsLiHf1kBDPZ6NU2Ox3-2" style="edgeStyle=orthogonalEdgeStyle;rounded=0;orthogonalLoop=1;jettySize=auto;html=1;exitX=1;exitY=0.5;exitDx=0;exitDy=0;entryX=0;entryY=0.5;entryDx=0;entryDy=0;endArrow=open;endFill=0;" edge="1" parent="1" source="uVsLiHf1kBDPZ6NU2Ox3-1" target="KEc5gwt8fzmTfbdWs-q2-6">
          <mxGeometry relative="1" as="geometry" />
        </mxCell>
        <mxCell id="uVsLiHf1kBDPZ6NU2Ox3-1" value="Listening for incoming requests" style="rounded=1;whiteSpace=wrap;html=1;fillColor=#fff2cc;strokeColor=#d6b656;" vertex="1" parent="1">
          <mxGeometry x="170" y="105" width="120" height="60" as="geometry" />
        </mxCell>
      </root>
    </mxGraphModel>
  </diagram>
</mxfile>
